<?xml version="1.0" encoding="iso-8859-1"?>
<!-- Generator: Adobe Illustrator 19.0.0, SVG Export Plug-In . SVG Version: 6.00 Build 0)  -->
<svg version="1.1" id="Layer_1" xmlns="http://www.w3.org/2000/svg" xmlns:xlink="http://www.w3.org/1999/xlink" x="0px" y="0px"
	 viewBox="0 0 512 512" style="enable-background:new 0 0 512 512;" xml:space="preserve" fill="#42b883">
<g>
	<g>
		<rect x="144.196" y="111.72" width="24.033" height="15.673"/>
	</g>
</g>
<g>
	<g>
		<rect x="216.294" y="111.72" width="24.033" height="15.673"/>
	</g>
</g>
<g>
	<g>
		<polygon points="175.543,144.114 175.543,159.788 183.902,159.788 183.902,168.147 199.576,168.147 199.576,159.788 
			207.935,159.788 207.935,144.114 		"/>
	</g>
</g>
<g>
	<g>
		<rect x="183.902" y="183.818" width="15.673" height="15.673"/>
	</g>
</g>
<g>
	<g>
		<path d="M16.164,400.079v55.673h111.672v-55.673H16.164z M112.162,440.079H31.837v-24.326h80.325V440.079z"/>
	</g>
</g>
<g>
	<g>
		<polygon points="135.837,424.147 135.837,439.821 168.229,439.821 168.229,480.572 103.445,480.572 103.445,463.853 
			87.771,463.853 87.771,496.245 183.902,496.245 183.902,424.147 		"/>
	</g>
</g>
<g>
	<g>
		<rect y="360.406" width="312.424" height="15.674"/>
	</g>
</g>
<g>
	<g>
		<rect x="376.163" y="360.406" width="135.837" height="15.674"/>
	</g>
</g>
<g>
	<g>
		<polygon points="271.673,480.572 271.673,511.918 287.347,511.918 287.347,496.245 376.163,496.245 376.163,511.918 
			391.837,511.918 391.837,480.572 		"/>
	</g>
</g>
<g>
	<g>
		<rect x="199.576" y="400.112" width="16.718" height="15.673"/>
	</g>
</g>
<g>
	<g>
		<rect x="231.967" y="432.504" width="32.392" height="15.673"/>
	</g>
</g>
<g>
	<g>
		<rect x="216.294" y="480.569" width="15.673" height="15.673"/>
	</g>
</g>
<g>
	<g>
		<rect x="15.673" y="472.21" width="40.751" height="15.674"/>
	</g>
</g>
<g>
	<g>
		<rect x="424.229" y="415.786" width="15.673" height="15.673"/>
	</g>
</g>
<g>
	<g>
		<rect x="360.49" y="448.178" width="31.347" height="15.674"/>
	</g>
</g>
<g>
	<g>
		<rect x="448.261" y="439.818" width="24.033" height="15.673"/>
	</g>
</g>
<g>
	<g>
		<rect x="431.543" y="472.21" width="16.718" height="15.674"/>
	</g>
</g>
<g>
	<g>
		<rect x="463.935" y="391.753" width="32.392" height="15.673"/>
	</g>
</g>
<g>
	<g>
		<rect x="383.478" y="391.753" width="24.033" height="15.673"/>
	</g>
</g>
<g>
	<g>
		<rect x="256" y="391.753" width="39.706" height="15.673"/>
	</g>
</g>
<g>
	<g>
		<rect x="144.196" y="391.753" width="15.673" height="15.673"/>
	</g>
</g>
<g>
	<g>
		<path d="M512,336.376H363.634c-8.069-18.964-26.887-32.296-48.763-32.296h-34.838v-34.452c7.882,1.402,15.904,2.126,23.965,2.126
			c32.125,0,63.105-11.342,87.578-32h84.422c19.76,0,35.837-16.077,35.837-35.837s-16.077-35.836-35.837-35.836H436
			c2.545-10.481,3.834-21.258,3.834-32.163c0-5.735-0.369-11.473-1.083-17.144c9.864-2.92,17.082-12.058,17.082-22.856
			c0-13.144-10.692-23.837-23.837-23.837h-8.073c-11.005-20.643-27.158-38.125-46.965-50.76
			c-21.781-13.895-47.01-21.24-72.961-21.24c-46.649,0-90.259,24.237-115.031,63.576h-34.815L104.49,34.145v302.23H0v15.674
			l311.998-0.296c4.501,0,8.164,3.661,8.164,8.163v56c0,7.003,3.062,13.623,8.399,18.162c4.338,3.691,9.821,5.67,15.473,5.67
			c1.298,0,2.606-0.104,3.91-0.317c11.34-1.844,19.892-12.323,19.892-24.372v-58.016c0-1.685-0.088-3.349-0.242-4.995H512V336.376z
			 M475.997,183.754c11.119,0,20.163,9.045,20.163,20.162c0,11.118-9.045,20.163-20.163,20.163h-95.999
			c-11.119,0-20.163-9.046-20.163-20.163c0-11.118,9.045-20.162,20.163-20.162H475.997z M431.997,87.755
			c4.501,0,8.164,3.662,8.164,8.164s-3.662,8.164-8.164,8.164h-40c-4.501,0-8.162-3.662-8.162-8.164s3.661-8.164,8.162-8.164
			H431.997z M303.997,15.755c22.958,0,45.273,6.494,64.532,18.78c15.119,9.644,27.829,22.481,37.288,37.546h-13.821
			c-13.143,0-23.835,10.692-23.835,23.837c0,13.145,10.692,23.837,23.835,23.837h31.078c0.716,5.338,1.085,10.75,1.085,16.163
			c0,10.945-1.476,21.736-4.366,32.163h-39.796c-19.76,0-35.837,16.076-35.837,35.836c0,15.531,9.934,28.782,23.78,33.744
			c-19.034,11.969-41.162,18.419-63.943,18.419c-8.08,0-16.113-0.816-23.965-2.403V34.236l-50.162,29.421h-21.865
			C230.552,33.807,266.141,15.755,303.997,15.755z M264.162,336.376h-32.194v-96.131h-15.673v96.131h-48.065v-96.131h-15.673v96.131
			h-32.392V61.691l29.682,17.64h84.281L264.359,61.6L264.162,336.376z M352.161,415.06c0,4.378-2.958,8.287-6.734,8.901
			c-2.47,0.401-4.857-0.245-6.712-1.822c-1.83-1.557-2.88-3.825-2.88-6.223v-13.115h16.327V415.06z M352.162,385.338h-16.327
			v-25.422c-0.001-13.144-10.694-23.836-23.837-23.836h-31.966v-16.327h34.838c20.563,0,37.291,16.729,37.291,37.29V385.338z"/>
	</g>
</g>
<g>
</g>
<g>
</g>
<g>
</g>
<g>
</g>
<g>
</g>
<g>
</g>
<g>
</g>
<g>
</g>
<g>
</g>
<g>
</g>
<g>
</g>
<g>
</g>
<g>
</g>
<g>
</g>
<g>
</g>
</svg>
